<?xml version="1.0" encoding="UTF-8"?>
<!DOCTYPE svg PUBLIC "-//W3C//DTD SVG 1.1//EN" "http://www.w3.org/Graphics/SVG/1.1/DTD/svg11.dtd">
<!-- Creator: CorelDRAW -->
<svg xmlns="http://www.w3.org/2000/svg" xml:space="preserve" width="1177.87mm" height="956.567mm" version="1.1" style="shape-rendering:geometricPrecision; text-rendering:geometricPrecision; image-rendering:optimizeQuality; fill-rule:evenodd; clip-rule:evenodd"
viewBox="1375.16 573.13 26373.85 15658.89"
 xmlns:xlink="http://www.w3.org/1999/xlink"
 xmlns:xodm="http://www.corel.com/coreldraw/odm/2003">
 <defs>
  <style type="text/css">
   <![CDATA[
    .fil1 {fill:#FEFEFE}
    .fil6 {fill:#FFF212}
    .fil3 {fill:#EC268F}
    .fil5 {fill:#00AFEF}
    .fil4 {fill:#201E1E}
    .fil2 {fill:black}
    .fil0 {fill:url(#id0)}
   ]]>
  </style>
  <linearGradient id="id0" gradientUnits="userSpaceOnUse" x1="9246.75" y1="13998.68" x2="19720.55" y2="13998.68">
   <stop offset="0" style="stop-opacity:1; stop-color:#00AFEF"/>
   <stop offset="0.509804" style="stop-opacity:1; stop-color:#EC268F"/>
   <stop offset="1" style="stop-opacity:1; stop-color:#FFF212"/>
  </linearGradient>
 </defs>
 <g id="Capa_x0020_1">
  <metadata id="CorelCorpID_0Corel-Layer"/>
  <path class="fil0" d="M16339.48 9995.64l0 4049.02 5624.88 -38.87 0 3549.19 -9320.98 0c0,-270.46 0,-540.92 0,-811.39 -1629.82,880.44 -2858.33,839.05 -4601.08,839.05l0 -3693.78c1408.06,0 2514.56,133.85 3625.9,-977.5 624.06,-624.06 977.5,-1461.32 977.5,-2345.09l0 -6919.46 -4603.4 0 0 -3646.82 8297.17 0 0 9995.64z"/>
  <path class="fil1" d="M8615.43 573.13l7150.92 0 0 2500.57 -7150.92 0 0 -2500.57zm0 13888.87l707.68 0c1069.99,0 2043.65,-438.65 2750.35,-1145.36 706.71,-706.71 1145.36,-1680.36 1145.36,-2750.35l0 -6992.04 2547.53 0 0 6992.04c0,1773.22 -724.48,3384.32 -1891.71,4551.54 -1167.22,1167.22 -2778.32,1891.71 -4551.54,1891.71l-707.68 0 0 -2547.53zm5744.96 835.02c-311.14,347.02 -687.89,695.41 -1143.88,1021.88 0,662.97 0,662.97 0,662.97l8174.73 0 0 -2398.96 -5624.88 38.87 0 -1564.97c-319.54,823.45 -789.33,1584.34 -1405.96,2240.22z"/>
  <path class="fil2" d="M8835.31 793l0 2060.81 6711.17 0 0 -2060.81 -6711.17 0zm0 13888.87l0 2107.77 487.8 0c1654.98,0 3226.76,-658 4396.06,-1827.3 1169.31,-1169.31 1827.3,-2741.08 1827.3,-4396.06l0 -6772.16 -2107.77 0 0 6772.16c0,1094.13 -437.02,2133.09 -1209.76,2905.83 -772.75,772.75 -1811.71,1209.76 -2905.83,1209.76l-487.8 0zm5687.06 763.86c-327.38,364.86 -691.97,693.92 -1085.98,985.11 0,110.38 0,220.76 0,331.14l7734.97 0 0 -1957.68 -5624.88 38.87 0 -801.09c-281.92,506.78 -624.55,978.35 -1024.11,1403.65z"/>
  <rect class="fil3" x="18882.82" y="5235.83" width="7886" height="719.75"/>
  <rect class="fil4" x="25070.54" y="11327.86" width="2362.65" height="719.75"/>
  <rect class="fil5" x="3939.87" y="8985.08" width="4532.71" height="719.75"/>
  <rect class="fil5" x="1375.16" y="2250.83" width="6552.97" height="719.75"/>
  <rect class="fil6" x="1629.41" y="15512.27" width="4713.05" height="719.75"/>
 </g>
</svg>
