<?xml version="1.0" encoding="UTF-8"?>
<!DOCTYPE svg PUBLIC "-//W3C//DTD SVG 1.1//EN" "http://www.w3.org/Graphics/SVG/1.1/DTD/svg11.dtd">
<!-- Creator: CorelDRAW -->
<svg xmlns="http://www.w3.org/2000/svg" xml:space="preserve" width="408.321mm" height="408.321mm" version="1.1" style="shape-rendering:geometricPrecision; text-rendering:geometricPrecision; image-rendering:optimizeQuality; fill-rule:evenodd; clip-rule:evenodd"
viewBox="0 0 5625.36 5625.36"
 xmlns:xlink="http://www.w3.org/1999/xlink"
 xmlns:xodm="http://www.corel.com/coreldraw/odm/2003">
 <defs>
  <style type="text/css">
   <![CDATA[
    .str2 {stroke:#FFF212;stroke-width:64.02;stroke-linecap:round;stroke-linejoin:round;stroke-miterlimit:22.9256}
    .str3 {stroke:#EC268F;stroke-width:64.02;stroke-linecap:round;stroke-linejoin:round;stroke-miterlimit:22.9256}
    .str0 {stroke:#00AFEF;stroke-width:64.02;stroke-linecap:round;stroke-linejoin:round;stroke-miterlimit:22.9256}
    .str1 {stroke:#201E1E;stroke-width:64.02;stroke-linecap:round;stroke-linejoin:round;stroke-miterlimit:22.9256}
    .fil2 {fill:none}
    .fil1 {fill:#201E1E;fill-rule:nonzero}
    .fil0 {fill:url(#id0)}
   ]]>
  </style>
  <linearGradient id="id0" gradientUnits="userSpaceOnUse" x1="2186.59" y1="2914.14" x2="3527.77" y2="2914.14">
   <stop offset="0" style="stop-opacity:1; stop-color:#00AFEF"/>
   <stop offset="0.509804" style="stop-opacity:1; stop-color:#EC268F"/>
   <stop offset="1" style="stop-opacity:1; stop-color:#FFF212"/>
  </linearGradient>
 </defs>
 <g id="Ñëîé_x0020_1">
  <metadata id="CorelCorpID_0Corel-Layer"/>
  <path class="fil0" d="M3094.82 2401.54l0 518.48 720.27 -4.98 0 454.48 -1193.56 0c0,-34.63 0,-69.26 0,-103.9 -208.7,112.74 -366.01,107.45 -589.17,107.45l0 -473c180.3,0 321.99,17.14 464.3,-125.17 79.9,-79.91 125.17,-187.12 125.17,-300.29l0 -886.05 -589.47 0 0 -466.97 1062.46 0 0 1279.95zm-989.07 -1206.56l915.68 0 0 320.2 -915.68 0 0 -320.2zm0 1778.49l90.62 0c137.02,0 261.7,-56.17 352.19,-146.66 90.5,-90.5 146.67,-215.18 146.67,-352.19l0 -895.33 326.21 0 0 895.33c0,227.07 -92.77,433.37 -242.24,582.83 -149.46,149.47 -355.76,242.24 -582.83,242.24l-90.62 0 0 -326.21zm735.65 106.93c-39.84,44.44 -88.08,89.04 -146.47,130.85 0,84.89 0,84.89 0,84.89l1046.78 0 0 -307.19 -720.27 4.98 0 -200.39c-40.92,105.44 -101.07,202.87 -180.04,286.86z"/>
  <path class="fil1" d="M1002.59 3853.72l43.75 -3.93c2.05,17.7 6.88,32.2 14.5,43.59 7.62,11.31 19.42,20.48 35.4,27.53 15.98,6.97 34,10.49 54,10.49 17.78,0 33.43,-2.62 47.03,-7.95 13.6,-5.33 23.68,-12.62 30.32,-21.88 6.64,-9.26 10,-19.34 10,-30.15 0,-10.98 -3.2,-20.57 -9.59,-28.84 -6.39,-8.19 -16.96,-15.08 -31.71,-20.73 -9.42,-3.61 -30.32,-9.34 -62.68,-17.13 -32.37,-7.78 -54.98,-15.08 -67.93,-21.96 -16.8,-8.85 -29.25,-19.83 -37.45,-32.86 -8.27,-13.03 -12.37,-27.69 -12.37,-43.84 0,-17.86 5.08,-34.5 15.16,-49.9 10.08,-15.49 24.74,-27.2 44.16,-35.23 19.34,-8.03 40.89,-12.05 64.57,-12.05 26.06,0 49.08,4.18 68.99,12.62 19.91,8.36 35.23,20.73 45.97,37.12 10.73,16.31 16.47,34.82 17.29,55.47l-44.74 3.44c-2.38,-22.21 -10.49,-39 -24.34,-50.31 -13.85,-11.39 -34.33,-17.04 -61.37,-17.04 -28.19,0 -48.75,5.16 -61.62,15.49 -12.86,10.32 -19.34,22.78 -19.34,37.36 0,12.62 4.59,23.02 13.68,31.22 9.01,8.11 32.37,16.55 70.22,25.07 37.85,8.6 63.83,16.06 77.92,22.45 20.4,9.42 35.56,21.3 45.31,35.81 9.75,14.42 14.59,31.05 14.59,49.9 0,18.76 -5.33,36.3 -16.06,52.85 -10.73,16.55 -26.06,29.41 -46.13,38.59 -20.07,9.18 -42.61,13.77 -67.76,13.77 -31.79,0 -58.42,-4.67 -79.89,-13.93 -21.55,-9.26 -38.35,-23.19 -50.56,-41.87 -12.29,-18.6 -18.68,-39.66 -19.34,-63.17zm647.81 -238.93l46.7 0 0 203.28c0,35.4 -4.01,63.5 -11.96,84.31 -8.03,20.73 -22.45,37.69 -43.26,50.72 -20.89,13.03 -48.18,19.58 -82.1,19.58 -32.86,0 -59.81,-5.65 -80.71,-17.04 -20.98,-11.39 -35.89,-27.78 -44.82,-49.33 -8.93,-21.55 -13.44,-50.96 -13.44,-88.25l0 -203.28 46.7 0 0 203.2c0,30.56 2.87,53.18 8.52,67.6 5.65,14.5 15.32,25.73 29.17,33.51 13.76,7.87 30.64,11.8 50.55,11.8 34.09,0 58.42,-7.78 72.92,-23.27 14.5,-15.57 21.71,-45.39 21.71,-89.64l0 -203.2zm196.59 352l0 -352 132.08 0c26.87,0 48.42,3.52 64.73,10.65 16.22,7.13 28.92,18.11 38.1,32.94 9.26,14.75 13.85,30.23 13.85,46.46 0,14.99 -4.1,29.17 -12.21,42.44 -8.11,13.27 -20.4,24.01 -36.87,32.2 21.3,6.23 37.69,16.88 49.08,31.96 11.47,14.99 17.21,32.78 17.21,53.26 0,16.55 -3.52,31.87 -10.49,46.05 -6.96,14.18 -15.57,25.07 -25.81,32.78 -10.24,7.62 -23.11,13.44 -38.51,17.37 -15.49,3.93 -34.41,5.9 -56.86,5.9l-134.29 0zm46.7 -204.02l76.12 0c20.65,0 35.48,-1.39 44.41,-4.1 11.88,-3.52 20.81,-9.42 26.79,-17.62 5.98,-8.19 9.01,-18.44 9.01,-30.81 0,-11.72 -2.79,-22.04 -8.44,-30.89 -5.57,-8.93 -13.6,-15.08 -24.01,-18.35 -10.41,-3.28 -28.27,-4.92 -53.5,-4.92l-70.38 0 0 106.68zm0 162.73l87.67 0c15.08,0 25.65,-0.57 31.79,-1.72 10.65,-1.88 19.67,-5.08 26.88,-9.59 7.21,-4.51 13.11,-11.06 17.78,-19.67 4.67,-8.6 6.96,-18.52 6.96,-29.74 0,-13.19 -3.36,-24.58 -10.16,-34.33 -6.72,-9.75 -16.06,-16.55 -28.02,-20.48 -11.88,-3.93 -29.09,-5.9 -51.46,-5.9l-81.45 0 0 121.43zm355.3 41.3l0 -352 46.7 0 0 310.7 173.05 0 0 41.3 -219.75 0zm357.35 0l0 -352 46.7 0 0 352 -46.7 0zm201.83 0l0 -352 69.81 0 83.25 249.17c7.7,23.19 13.27,40.56 16.8,52.11 4.01,-12.78 10.32,-31.63 18.85,-56.45l84.72 -244.83 62.35 0 0 352 -44.74 0 0 -294.48 -102.75 294.48 -41.95 0 -101.6 -299.89 0 299.89 -44.74 0zm446 0l135.03 -352 51.21 0 143.39 352 -53.1 0 -40.72 -106.68 -148.22 0 -38.18 106.68 -49.41 0zm101.27 -144.54l119.96 0 -36.71 -97.59c-11.06,-29.66 -19.42,-54.16 -25.24,-73.5 -4.83,22.94 -11.31,45.48 -19.42,67.76l-38.59 103.32zm339.32 144.54l0 -352 121.27 0c27.37,0 48.26,1.64 62.68,5 20.16,4.67 37.36,13.11 51.62,25.24 18.6,15.73 32.45,35.72 41.62,60.14 9.26,24.42 13.85,52.36 13.85,83.74 0,26.71 -3.11,50.39 -9.34,71.04 -6.23,20.65 -14.26,37.77 -24.01,51.29 -9.83,13.52 -20.48,24.17 -32.12,31.87 -11.55,7.78 -25.57,13.68 -41.95,17.7 -16.47,4.02 -35.32,5.98 -56.62,5.98l-127 0zm46.7 -41.3l75.05 0c23.19,0 41.38,-2.13 54.57,-6.47 13.19,-4.34 23.68,-10.41 31.55,-18.27 10.98,-11.06 19.58,-25.97 25.73,-44.66 6.15,-18.68 9.26,-41.3 9.26,-67.93 0,-36.87 -6.06,-65.22 -18.11,-85.05 -12.05,-19.83 -26.71,-33.1 -44,-39.82 -12.45,-4.83 -32.53,-7.21 -60.22,-7.21l-73.82 0 0 269.41zm368.16 -130.03c0,-58.34 15.73,-104.06 47.11,-137.08 31.38,-33.02 71.86,-49.49 121.51,-49.49 32.53,0 61.78,7.78 87.92,23.27 26.06,15.49 45.97,37.12 59.65,64.89 13.68,27.69 20.57,59.16 20.57,94.31 0,35.64 -7.21,67.6 -21.63,95.7 -14.42,28.19 -34.82,49.49 -61.21,63.91 -26.47,14.5 -54.98,21.71 -85.54,21.71 -33.18,0 -62.76,-8.03 -88.9,-24.01 -26.06,-15.98 -45.89,-37.77 -59.32,-65.47 -13.44,-27.61 -20.16,-56.86 -20.16,-87.75zm48.18 0.82c0,42.36 11.39,75.71 34.17,100.04 22.78,24.34 51.37,36.54 85.79,36.54 35.07,0 63.83,-12.29 86.53,-36.87 22.61,-24.58 33.92,-59.49 33.92,-104.71 0,-28.6 -4.83,-53.59 -14.5,-74.89 -9.67,-21.3 -23.84,-37.85 -42.44,-49.57 -18.68,-11.72 -39.58,-17.62 -62.76,-17.62 -32.94,0 -61.29,11.31 -85.05,33.92 -23.76,22.61 -35.64,60.31 -35.64,113.16zm407.33 57.44l43.75 -3.93c2.05,17.7 6.88,32.2 14.5,43.59 7.62,11.31 19.42,20.48 35.4,27.53 15.98,6.97 34,10.49 54,10.49 17.78,0 33.43,-2.62 47.03,-7.95 13.6,-5.33 23.68,-12.62 30.32,-21.88 6.64,-9.26 10,-19.34 10,-30.15 0,-10.98 -3.2,-20.57 -9.59,-28.84 -6.39,-8.19 -16.96,-15.08 -31.71,-20.73 -9.42,-3.61 -30.32,-9.34 -62.68,-17.13 -32.37,-7.78 -54.98,-15.08 -67.93,-21.96 -16.8,-8.85 -29.25,-19.83 -37.45,-32.86 -8.27,-13.03 -12.37,-27.69 -12.37,-43.84 0,-17.86 5.08,-34.5 15.16,-49.9 10.08,-15.49 24.74,-27.2 44.16,-35.23 19.34,-8.03 40.89,-12.05 64.57,-12.05 26.06,0 49.08,4.18 68.99,12.62 19.91,8.36 35.23,20.73 45.97,37.12 10.73,16.31 16.47,34.82 17.29,55.47l-44.74 3.44c-2.38,-22.21 -10.49,-39 -24.34,-50.31 -13.85,-11.39 -34.33,-17.04 -61.37,-17.04 -28.19,0 -48.75,5.16 -61.62,15.49 -12.86,10.32 -19.34,22.78 -19.34,37.36 0,12.62 4.59,23.02 13.68,31.22 9.01,8.11 32.37,16.55 70.22,25.07 37.85,8.6 63.83,16.06 77.92,22.45 20.4,9.42 35.56,21.3 45.31,35.81 9.75,14.42 14.59,31.05 14.59,49.9 0,18.76 -5.33,36.3 -16.06,52.85 -10.73,16.55 -26.06,29.41 -46.13,38.59 -20.07,9.18 -42.61,13.77 -67.76,13.77 -31.79,0 -58.42,-4.67 -79.89,-13.93 -21.55,-9.26 -38.35,-23.19 -50.56,-41.87 -12.29,-18.6 -18.68,-39.66 -19.34,-63.17z"/>
  <g>
   <path class="fil2 str0" d="M770.46 4699.62c-458.3,-495.73 -738.45,-1158.58 -738.45,-1886.94 0,-713.46 268.82,-1364.06 710.54,-1856.33l218.42 218.42c-386.09,436.16 -620.6,1009.61 -620.6,1637.91 0,643.21 245.67,1229.01 648.26,1668.77l-218.17 218.17z"/>
  </g>
  <g>
   <path class="fil2 str1" d="M4669.01 4882.81c-492.25,441.75 -1142.87,710.54 -1856.33,710.54 -713.46,0 -1364.06,-268.82 -1856.33,-710.54l218.42 -218.42c436.16,386.09 1009.61,620.6 1637.91,620.6 628.3,0 1201.76,-234.49 1637.91,-620.6l218.42 218.42z"/>
  </g>
  <g>
   <path class="fil2 str2" d="M4882.81 956.35c441.73,492.27 710.54,1142.87 710.54,1856.33 0,728.36 -280.17,1391.19 -738.45,1886.94l-218.17 -218.17c402.57,-439.79 648.26,-1025.56 648.26,-1668.77 0,-628.3 -234.51,-1201.75 -620.6,-1637.91l218.42 -218.42z"/>
  </g>
  <g>
   <path class="fil2 str3" d="M2812.68 32.01c728.36,0 1391.21,280.15 1886.94,738.45l-218.17 218.17c-439.76,-402.59 -1025.56,-648.26 -1668.77,-648.26 -643.21,0 -1229.01,245.67 -1668.77,648.26l-218.17 -218.17c495.73,-458.3 1158.58,-738.45 1886.94,-738.45z"/>
  </g>
 </g>
</svg>
